<svg width="82" height="24" viewBox="0 0 82 26" fill="none" xmlns="http://www.w3.org/2000/svg">
<path d="M18.2354 7.75006C17.6619 6.02504 16.515 4.87503 14.7945 4.15627V2H13.3608V4.01252H12.7874C11.2103 4.01252 9.91998 4.58752 8.77303 5.73754L8.19955 6.31254L6.19238 5.59378C5.76227 5.45003 5.33216 5.30628 4.75869 5.30628C3.89847 5.30628 3.03826 5.59379 2.32141 6.16879C1.4612 6.7438 1.03109 7.46255 0.744351 8.18131C0.457612 9.18757 0.457612 10.0501 0.744351 11.0563C1.17446 12.0626 1.60457 12.7814 2.32141 13.2126C1.74794 15.3689 2.17804 17.2376 3.7551 18.8189C4.90206 19.9689 6.19238 20.5439 7.76944 20.5439C8.48629 20.5439 8.91639 20.5439 9.3465 20.4002C10.2067 21.5502 11.3537 22.2689 12.7874 22.2689C13.2175 22.2689 13.7909 22.2689 14.2211 22.1252C15.0813 21.8377 15.6547 21.2627 16.2282 20.5439C16.8017 19.6814 17.0884 18.9627 17.0884 18.1002C17.0884 17.5252 17.0884 17.0939 16.9451 16.6626L16.2282 14.3626L17.0884 13.7876C18.2354 12.6376 18.8089 11.0563 18.6655 9.33132H20.5293V7.75006H18.2354ZM4.32858 11.0563C3.46836 10.6251 3.18163 10.0501 3.46837 9.18757C3.7551 8.32506 4.32858 8.03756 5.1888 8.32506L9.77661 10.0501C7.4827 11.2001 5.76227 11.4876 4.32858 11.0563ZM13.3608 19.1064C12.5006 19.3939 11.9271 19.1064 11.497 18.2439C11.0669 16.8064 11.3537 15.0814 12.5006 12.7814L14.2211 17.2376C14.5078 18.2439 14.2211 18.8189 13.3608 19.1064ZM15.0813 11.4876L14.2211 9.18757V9.04382L13.7909 8.61256H13.6476L11.3537 7.75006C11.9271 7.3188 12.5006 7.0313 13.2175 7.0313C13.9343 7.0313 14.6512 7.3188 15.2246 7.89381C15.7981 8.46881 16.0849 9.04382 16.0849 9.76257C15.7981 10.1938 15.5114 10.9126 15.0813 11.4876Z" fill="#121212"/>
<path d="M27.2627 8.7C27.2627 8.46 27.2627 8.18667 27.2627 7.88C27.276 7.56 27.296 7.25333 27.3227 6.96C27.1094 6.97333 26.856 6.98667 26.5627 7C26.2827 7 26.0694 7.00667 25.9227 7.02V5.5C26.5494 5.5 27.0694 5.46667 27.4827 5.4C27.9094 5.33333 28.2427 5.25333 28.4827 5.16C28.736 5.06667 28.9094 4.98 29.0027 4.9H30.0827V10.76C30.536 10.36 30.996 10.08 31.4627 9.92C31.9294 9.76 32.3694 9.68 32.7827 9.68C33.5827 9.68 34.2827 9.88667 34.8827 10.3C35.496 10.7133 35.9694 11.3 36.3027 12.06C36.6494 12.82 36.8227 13.7133 36.8227 14.74C36.8227 15.8067 36.6227 16.7667 36.2227 17.62C35.836 18.46 35.2827 19.12 34.5627 19.6C33.8427 20.08 32.976 20.32 31.9627 20.32C31.6027 20.32 31.1427 20.24 30.5827 20.08C30.036 19.9333 29.5294 19.6133 29.0627 19.12L28.4627 20H27.2627V8.7ZM30.0827 17C30.0827 17.4533 30.156 17.8133 30.3027 18.08C30.4494 18.3467 30.636 18.54 30.8627 18.66C31.0894 18.78 31.316 18.8467 31.5427 18.86C32.1427 18.8733 32.6094 18.7 32.9427 18.34C33.2894 17.98 33.5294 17.5067 33.6627 16.92C33.8094 16.32 33.8827 15.6933 33.8827 15.04C33.8827 14.4267 33.8094 13.8467 33.6627 13.3C33.516 12.7533 33.2827 12.3133 32.9627 11.98C32.6427 11.6333 32.2227 11.4667 31.7027 11.48C31.3694 11.4933 31.0627 11.58 30.7827 11.74C30.5027 11.8867 30.2694 12.0867 30.0827 12.34V17ZM43.1908 20.06L40.7708 13.12C40.6508 12.7733 40.5575 12.5133 40.4908 12.34C40.4375 12.1667 40.3975 12.02 40.3708 11.9C40.3441 11.78 40.3108 11.64 40.2708 11.48L39.4908 11.52V10H44.2908V11.28C43.8775 11.2933 43.6375 11.4533 43.5708 11.76C43.5041 12.0667 43.5241 12.4267 43.6308 12.84L44.3108 15.28C44.3908 15.5733 44.4641 15.8867 44.5308 16.22C44.6108 16.54 44.6775 16.86 44.7308 17.18C44.7975 16.9 44.8641 16.5933 44.9308 16.26C45.0108 15.9267 45.1241 15.5133 45.2708 15.02L46.7308 10H48.9108L50.5108 15.52C50.5908 15.8 50.6708 16.1067 50.7508 16.44C50.8441 16.76 50.9241 17.0533 50.9908 17.32C51.0441 17.0533 51.1175 16.76 51.2108 16.44C51.3041 16.12 51.3908 15.8333 51.4708 15.58L52.2508 13.04C52.3575 12.68 52.4508 12.3867 52.5308 12.16C52.6108 11.92 52.7108 11.68 52.8308 11.44L51.6908 11.52V10H55.4908V11.28C55.2241 11.28 54.9908 11.3667 54.7908 11.54C54.5908 11.7133 54.4108 11.9267 54.2508 12.18C54.1041 12.42 53.9841 12.66 53.8908 12.9C53.7975 13.1267 53.7308 13.3067 53.6908 13.44L51.4108 20.06H49.2908L47.9108 15.8C47.8708 15.6533 47.8041 15.44 47.7108 15.16C47.6308 14.88 47.5441 14.58 47.4508 14.26C47.3708 13.9267 47.2908 13.62 47.2108 13.34C47.1441 13.7133 47.0441 14.14 46.9108 14.62C46.7775 15.1 46.6508 15.54 46.5308 15.94C46.4108 16.34 46.3241 16.6133 46.2708 16.76L45.1708 20.06H43.1908ZM62.9617 20.32C62.3884 20.32 61.8284 20.2467 61.2817 20.1C60.7351 19.9533 60.3084 19.7667 60.0017 19.54L60.0417 20.14H58.5217L58.4417 16.7H59.7417C59.7817 17.1 59.9417 17.4667 60.2217 17.8C60.5017 18.1333 60.8684 18.4 61.3217 18.6C61.7751 18.7867 62.2817 18.88 62.8417 18.88C63.0684 18.88 63.2817 18.8467 63.4817 18.78C63.6951 18.7133 63.8684 18.6067 64.0017 18.46C64.1484 18.3 64.2217 18.1067 64.2217 17.88C64.2217 17.6267 64.1284 17.42 63.9417 17.26C63.7684 17.1 63.5084 16.9467 63.1617 16.8C62.8284 16.6533 62.4084 16.4867 61.9017 16.3C61.4884 16.14 61.0684 15.9733 60.6417 15.8C60.2284 15.6267 59.8417 15.42 59.4817 15.18C59.1351 14.9267 58.8551 14.62 58.6417 14.26C58.4284 13.8867 58.3217 13.4333 58.3217 12.9C58.3217 12.5133 58.3951 12.1333 58.5417 11.76C58.6884 11.3733 58.9151 11.0267 59.2217 10.72C59.5284 10.4 59.9151 10.1467 60.3817 9.96C60.8617 9.77333 61.4284 9.68 62.0817 9.68C62.4417 9.68 62.8484 9.74 63.3017 9.86C63.7684 9.96667 64.1617 10.1333 64.4817 10.36V9.78H66.0017V13.32H64.7017C64.6217 12.8533 64.4551 12.4533 64.2017 12.12C63.9617 11.7867 63.6484 11.5333 63.2617 11.36C62.8751 11.1733 62.4417 11.08 61.9617 11.08C61.6284 11.08 61.3217 11.16 61.0417 11.32C60.7751 11.48 60.6417 11.7533 60.6417 12.14C60.6417 12.4467 60.7484 12.6933 60.9617 12.88C61.1751 13.0533 61.4684 13.2 61.8417 13.32C62.2151 13.44 62.6284 13.58 63.0817 13.74C63.7617 13.9667 64.3617 14.2333 64.8817 14.54C65.4151 14.8467 65.8351 15.22 66.1417 15.66C66.4484 16.0867 66.6017 16.6133 66.6017 17.24C66.6017 17.9333 66.4284 18.5067 66.0817 18.96C65.7351 19.4133 65.2817 19.7533 64.7217 19.98C64.1751 20.2067 63.5884 20.32 62.9617 20.32ZM74.8088 20.32C73.8354 20.32 72.9754 20.1067 72.2288 19.68C71.4821 19.24 70.9021 18.6267 70.4888 17.84C70.0754 17.04 69.8688 16.1 69.8688 15.02C69.8688 14.0867 70.0754 13.2133 70.4888 12.4C70.9021 11.5867 71.4821 10.9333 72.2288 10.44C72.9888 9.93333 73.8688 9.68 74.8688 9.68C75.4288 9.68 75.9754 9.76 76.5088 9.92C77.0421 10.0667 77.5221 10.3267 77.9488 10.7C78.3888 11.0733 78.7354 11.58 78.9888 12.22C79.2554 12.86 79.3821 13.66 79.3688 14.62L72.8088 14.74C72.8088 15.46 72.8954 16.1067 73.0688 16.68C73.2554 17.2533 73.5554 17.7067 73.9688 18.04C74.3821 18.3733 74.9354 18.54 75.6288 18.54C75.8954 18.54 76.1954 18.4933 76.5288 18.4C76.8754 18.3067 77.2221 18.1533 77.5688 17.94C77.9288 17.7133 78.2621 17.4133 78.5688 17.04L79.4688 17.88C78.9888 18.56 78.4754 19.08 77.9288 19.44C77.3821 19.7867 76.8354 20.02 76.2888 20.14C75.7554 20.26 75.2621 20.32 74.8088 20.32ZM72.9288 13.34H76.6088C76.5954 12.78 76.5154 12.34 76.3688 12.02C76.2354 11.6867 76.0488 11.4467 75.8088 11.3C75.5688 11.1533 75.2888 11.08 74.9688 11.08C74.3821 11.08 73.9221 11.2933 73.5888 11.72C73.2554 12.1333 73.0354 12.6733 72.9288 13.34Z" fill="#121212"/>
</svg>
