<svg width="24" height="24" viewBox="0 0 20 20" fill="none" xmlns="http://www.w3.org/2000/svg">
<path d="M10 0C4.47708 0 0 4.47708 0 10C0 15.5229 4.47708 20 10 20C15.5229 20 20 15.5229 20 10C20 4.47708 15.5229 0 10 0ZM10.6844 12.3698C10.0427 12.3208 9.77396 12.0031 9.27187 11.699C8.99583 13.1479 8.65833 14.5375 7.65833 15.2635C7.34896 13.0719 8.11042 11.4281 8.46458 9.68125C7.86146 8.66563 8.53646 6.62292 9.80938 7.125C11.375 7.74583 8.45312 10.901 10.4146 11.2958C12.4625 11.7063 13.299 7.74167 12.0292 6.45417C10.1937 4.59271 6.68854 6.41146 7.11979 9.07604C7.22396 9.72708 7.89792 9.925 7.38854 10.824C6.21458 10.5635 5.86354 9.6375 5.90937 8.40313C5.98125 6.38229 7.725 4.96667 9.47292 4.77187C11.6844 4.52604 13.7594 5.58333 14.0469 7.66458C14.3688 10.0125 13.0479 12.5531 10.6844 12.3698Z" fill="white"/>
</svg>
